Coordinates
version=1
nRows=16
nColumns=40
inDegrees=yes

Units are S.I. units (second, meters, Newtons, ...)
Angles are in degrees.

endheader
time	pelvis_tilt	pelvis_list	pelvis_rotation	pelvis_tx	pelvis_ty	pelvis_tz	hip_flexion_r	hip_adduction_r	hip_rotation_r	knee_angle_r	knee_angle_r_beta	ankle_angle_r	subtalar_angle_r	mtp_angle_r	hip_flexion_l	hip_adduction_l	hip_rotation_l	knee_angle_l	knee_angle_l_beta	ankle_angle_l	subtalar_angle_l	mtp_angle_l	lumbar_extension	lumbar_bending	lumbar_rotation	arm_flex_r	arm_add_r	arm_rot_r	elbow_flex_r	pro_sup_r	wrist_flex_r	wrist_dev_r	arm_flex_l	arm_add_l	arm_rot_l	elbow_flex_l	pro_sup_l	wrist_flex_l	wrist_dev_l
      7.99750000	     -6.02852453	     -5.81819157	     -1.07091536	      0.99705645	      0.91278071	      0.46450695	      1.59366595	     -1.98884046	    -12.65562406	     29.86486229	     29.86486229	     14.39444897	     -2.74361831	    -10.85903039	     31.99187365	     -8.43503122	     -1.49873690	     30.05806470	     30.05806470	      7.13731685	    -15.82537089	      8.08541858	    -10.13383600	      4.34231028	      2.83865818	     40.21744132	    -15.04083351	      3.29423783	    116.34773767	     43.78155557	      0.00000000	      0.00000000	    -13.06119274	     -7.33921688	      3.75679050	     24.75935524	     44.77830449	      0.00000000	      0.00000000
      8.00914286	     -6.04101428	     -5.76719486	     -0.98644510	      0.99744282	      0.91434248	      0.46145038	      2.81223115	     -2.55166171	    -12.32746416	     32.67245080	     32.67245080	     11.17501238	     -5.57237277	    -15.37623143	     31.22994230	     -8.18720473	     -1.67354774	     29.79762455	     29.79762455	      7.74580915	    -15.54967780	      7.74779755	    -10.18639790	      4.39327425	      3.75226664	     37.69534751	    -16.26527764	      1.91624448	    119.22401348	     43.79217425	      0.00000000	      0.00000000	    -11.52119047	     -7.61444212	      3.47105921	     25.95342499	     44.91921357	      0.00000000	      0.00000000
      8.02078571	     -6.02217030	     -5.60144591	     -0.90502723	      0.99763383	      0.91582628	      0.45840467	      4.34498015	     -3.43199945	    -12.35593339	     36.23759635	     36.23759635	      9.35248409	     -6.97180141	    -15.67080188	     30.39902790	     -7.84764556	     -2.00926375	     29.46927719	     29.46927719	      8.31926384	    -15.21492169	      7.44827572	    -10.16610572	      4.34238023	      3.25603024	     36.25289824	    -16.13534065	      2.14553707	    119.13848438	     43.78843777	      0.00000000	      0.00000000	    -10.41765382	     -7.75939691	      3.41787611	     26.48309538	     44.95442818	      0.00000000	      0.00000000
      8.03242857	     -6.14567699	     -5.56162931	     -0.85066832	      0.99746247	      0.91704282	      0.45571603	      6.19975629	     -3.91989559	    -11.81068785	     39.81215754	     39.81215754	      6.91342321	     -9.79197588	    -16.06481561	     29.75782024	     -7.66865497	     -2.27251112	     29.12830746	     29.12830746	      8.66413770	    -14.82968650	      6.84994290	    -10.06057755	      4.41688465	      3.38816686	     34.11500767	    -16.62759154	      1.66016265	    119.78266659	     43.80435706	      0.00000000	      0.00000000	     -9.32780916	     -8.01858174	      3.01276428	     27.99480995	     45.06191934	      0.00000000	      0.00000000
      8.04407143	     -6.18603125	     -5.35457742	     -0.78032595	      0.99720378	      0.91826612	      0.45298782	      8.07435687	     -4.77856597	    -11.69810118	     43.53355963	     43.53355963	      4.81064831	    -11.43504492	    -15.73849038	     28.95406333	     -7.31692655	     -2.65816133	     28.67075780	     28.67075780	      9.08936601	    -14.38485692	      6.52364357	    -10.04004413	      4.30796585	      3.00938322	     32.26387583	    -16.60877233	      1.73832381	    119.59187031	     43.80797384	      0.00000000	      0.00000000	     -8.18971363	     -8.26848957	      2.81959148	     28.86319192	     45.11735824	      0.00000000	      0.00000000
      8.05571429	     -6.24051937	     -5.20259714	     -0.70918114	      0.99668568	      0.91935497	      0.45044327	     10.06083286	     -5.44587531	    -11.38990056	     47.18804083	     47.18804083	      2.70206773	    -13.44191316	    -14.83398735	     28.23366700	     -7.03224384	     -2.99347770	     28.28939918	     28.28939918	      9.45397119	    -13.95038892	      6.16000152	    -10.03686308	      4.29206964	      2.78810649	     30.17702334	    -16.72187623	      1.67754037	    119.22320094	     43.82040621	      0.00000000	      0.00000000	     -6.97191996	     -8.56961678	      2.53148286	     30.02550647	     45.18611187	      0.00000000	      0.00000000
      8.06735714	     -6.25525723	     -5.26361986	     -0.64649067	      0.99601483	      0.92040690	      0.44823779	     12.13827160	     -5.68768684	    -10.86395606	     50.87641029	     50.87641029	      1.53989888	    -15.13925838	    -10.93875832	     27.51617214	     -7.02691536	     -3.33141112	     27.94048542	     27.94048542	      9.62437892	    -13.38022192	      5.08569473	    -10.17504985	      4.44320890	      3.26667701	     27.34847176	    -17.07887892	     -0.03112868	    119.39956603	     43.89838218	      0.00000000	      0.00000000	     -6.03053373	     -8.87609491	      1.46401781	     33.25503988	     45.38567067	      0.00000000	      0.00000000
      8.07900000	     -6.28592147	     -5.14527552	     -0.61005198	      0.99514011	      0.92135687	      0.44608445	     14.35400186	     -6.20092204	    -10.46077340	     54.58929041	     54.58929041	      1.25774261	    -15.79874937	     -5.72523270	     26.76060014	     -6.80725105	     -3.66580336	     27.48300330	     27.48300330	      9.74563071	    -13.01941700	      4.21182946	    -10.26048150	      4.42197851	      3.04627611	     25.08217568	    -16.86077410	     -0.62085521	    118.47872254	     43.99068208	      0.00000000	      0.00000000	     -5.02968297	     -9.21389231	      0.61526271	     35.35313592	     45.56796424	      0.00000000	      0.00000000
      8.09064286	     -6.20573324	     -5.00274558	     -0.52017449	      0.99418234	      0.92237085	      0.44383544	     16.24514137	     -6.79224692	    -10.26388781	     57.63917582	     57.63917582	     -0.23257963	    -16.90895781	     -5.07643075	     25.96822880	     -6.51982477	     -3.87970360	     27.16775011	     27.16775011	     10.12435557	    -12.68570465	      4.02710284	    -10.46127190	      4.44612339	      2.67619319	     23.03143285	    -16.76516296	     -0.28312527	    117.34087906	     44.00967170	      0.00000000	      0.00000000	     -3.49540968	     -9.53948748	      0.43897789	     36.18988064	     45.61777368	      0.00000000	      0.00000000
      8.10228571	     -6.29992122	     -4.86488064	     -0.60858495	      0.99308900	      0.92317765	      0.44204141	     18.43109673	     -7.20389392	     -9.77706333	     60.53652134	     60.53652134	     -1.18057557	    -17.81880513	     -3.77104810	     25.27770564	     -6.33304147	     -4.28586379	     26.72734969	     26.72734969	     10.48895120	    -12.25030408	      3.78217145	    -10.44585178	      4.41024167	      2.73740301	     20.56465984	    -16.97990919	     -0.43334059	    115.35034750	     44.07241621	      0.00000000	      0.00000000	     -2.05768068	     -9.84287701	      0.11277555	     37.53151754	     45.68801714	      0.00000000	      0.00000000
      8.11392857	     -6.24651443	     -4.89719057	     -0.61444110	      0.99193281	      0.92413627	      0.44048028	     20.55498376	     -7.28399786	     -9.25967340	     63.40158525	     63.40158525	     -0.18697734	    -17.77531487	      2.26993546	     24.51776778	     -6.35353109	     -4.66893010	     26.39822864	     26.39822864	     10.74288807	    -11.62651043	      3.03899117	    -10.63975818	      4.51608024	      2.71938064	     18.33008196	    -16.24453449	     -2.33764791	    112.56819701	     44.24884852	      0.00000000	      0.00000000	     -1.17791368	    -10.23945294	     -0.81286774	     40.89163211	     45.86010575	      0.00000000	      0.00000000
      8.12557143	     -6.20606501	     -4.80468246	     -0.67268989	      0.99073635	      0.92507853	      0.43889613	     22.49436224	     -7.57441784	     -8.86627725	     65.60286331	     65.60286331	     -0.53004248	    -18.03629008	      3.00582779	     23.70899351	     -6.19477747	     -4.98316369	     25.97561481	     25.97561481	     11.09396930	    -11.25421643	      2.82008917	    -10.81982477	      4.55096467	      2.80359929	     16.12608792	    -16.56946088	     -2.22864243	    110.09802250	     44.32349829	      0.00000000	      0.00000000	      0.51724746	    -10.54031790	     -1.11060330	     42.21300374	     45.93168412	      0.00000000	      0.00000000
      8.13721429	     -6.15997386	     -4.73975946	     -0.77516414	      0.98953474	      0.92602404	      0.43758395	     24.38732115	     -7.70558068	     -8.37703174	     67.42816307	     67.42816307	     -0.64983001	    -18.15808580	      3.67565377	     22.88574059	     -6.10513649	     -5.34716456	     25.54575043	     25.54575043	     11.46293074	    -10.78524856	      2.54110590	    -10.96499431	      4.59332829	      2.87752052	     14.02986978	    -16.45278008	     -2.62289558	    107.03398146	     44.43258366	      0.00000000	      0.00000000	      2.11396706	    -10.86599546	     -1.42980938	     43.79742751	     46.00517803	      0.00000000	      0.00000000
      8.14885714	     -6.10291567	     -4.73175258	     -0.87484800	      0.98832418	      0.92695801	      0.43657259	     26.20481597	     -7.70341325	     -7.94062056	     68.89165324	     68.89165324	     -0.45612376	    -18.12614669	      4.51172791	     22.06204805	     -6.10987878	     -5.77639007	     25.12276766	     25.12276766	     11.75047812	    -10.24978607	      2.13845916	    -11.14279941	      4.64905928	      2.69893520	     12.33170734	    -15.67943842	     -3.42008270	    103.11083396	     44.59048731	      0.00000000	      0.00000000	      3.36251897	    -11.32586411	     -1.83259341	     45.93498388	     46.09982918	      0.00000000	      0.00000000
      8.16050000	     -6.05074669	     -4.68526264	     -1.03191816	      0.98709297	      0.92788143	      0.43569637	     27.94581391	     -7.69648320	     -7.47713065	     69.90523597	     69.90523597	     -0.50030656	    -17.98515010	      4.43569620	     21.21115549	     -6.05783309	     -6.15601885	     24.65741124	     24.65741124	     12.08408540	     -9.84226194	      1.95268070	    -11.35536882	      4.67185409	      2.93104525	     10.27176901	    -15.78285302	     -3.47347225	    100.01642097	     44.68579856	      0.00000000	      0.00000000	      5.12131985	    -11.60124903	     -2.10585243	     47.44081251	     46.16574616	      0.00000000	      0.00000000
      8.17214286	     -5.97639494	     -4.66389331	     -1.18251128	      0.98596041	      0.92875419	      0.43500565	     29.54648545	     -7.61388982	     -7.05578575	     70.49784938	     70.49784938	     -0.45227700	    -17.73793944	      4.16958547	     20.32436210	     -6.04578594	     -6.56841267	     24.18391987	     24.18391987	     12.45858647	     -9.35706845	      1.70955502	    -11.52885067	      4.70182601	      3.21903957	      8.38823485	    -15.70016772	     -3.82284896	     96.16633061	     44.81440922	      0.00000000	      0.00000000	      6.83712899	    -11.81325374	     -2.33563565	     49.10623102	     46.22894741	      0.00000000	      0.00000000
